<svg width="44" height="30" viewBox="0 0 44 30" fill="none" xmlns="http://www.w3.org/2000/svg">
<g filter="url(#filter0_f)">
<path d="M2.87183 11.7742C2.87183 11.7742 4.53955 13.2755 5.84263 13.2259C7.47637 13.1622 7.75613 11.854 9.27002 11.7742C10.8545 11.7906 11.0162 13.1471 12.7342 13.2259C14.2727 13.2075 14.9251 11.7989 16.3912 11.7742C17.8574 11.7496 19.4216 13.2259 19.4216 13.2259" stroke="#42A0F0" stroke-opacity="0.596" stroke-width="2.57388" stroke-linecap="round"/>
</g>
<g filter="url(#filter1_f)">
<path d="M9.43896 4.38948C9.43896 4.38948 11.8524 6.56254 13.7393 6.49096C16.1034 6.3987 16.5091 4.50441 18.7004 4.38948C20.994 4.4123 21.2288 6.37604 23.7143 6.49096C25.9417 6.46453 26.8854 4.42527 29.0085 4.38948C31.1317 4.35369 33.3952 6.4908 33.3952 6.4908" stroke="#42A0F0" stroke-opacity="0.596" stroke-width="2.57388" stroke-linecap="round"/>
</g>
<g filter="url(#filter2_f)">
<path d="M17.812 18.5087C17.812 18.5087 20.2254 20.6818 22.1123 20.6102C24.4765 20.518 24.8822 18.6237 27.0735 18.5087C29.367 18.5316 29.6018 20.4953 32.0873 20.6102C34.3147 20.5838 35.2584 18.5445 37.3816 18.5087C39.5047 18.473 41.7682 20.6101 41.7682 20.6101" stroke="#42A0F0" stroke-opacity="0.596" stroke-width="2.57388" stroke-linecap="round"/>
</g>
<g filter="url(#filter3_f)">
<path d="M4.02124 25.8967C4.02124 25.8967 6.43466 28.0697 8.32156 27.9982C10.6857 27.9059 11.0914 26.0116 13.2827 25.8967C15.5763 25.9195 15.811 27.8832 18.2965 27.9982C20.5239 27.9717 21.4676 25.9325 23.5908 25.8967C25.7139 25.8609 27.9775 27.998 27.9775 27.998" stroke="#42A0F0" stroke-opacity="0.596" stroke-width="2.57388" stroke-linecap="round"/>
</g>
<g filter="url(#filter4_f)">
<path d="M28.7608 11.9999L27.6116 13.1491" stroke="#CAD1D2" stroke-width="0.643471" stroke-linecap="round"/>
<path d="M27.6116 11.9999L28.7608 13.1491" stroke="#CAD1D2" stroke-width="0.643471" stroke-linecap="round"/>
<path d="M38.1223 25.2985L37.2981 26.1226" stroke="#42A0F0" stroke-width="0.643471" stroke-linecap="round"/>
<path d="M37.2981 25.2985L38.1223 26.1226" stroke="#42A0F0" stroke-width="0.643471" stroke-linecap="round"/>
<path d="M2.82417 21.1938L2 22.018" stroke="#713FFD" stroke-width="0.643471" stroke-linecap="round"/>
<path d="M2 21.1938L2.82417 22.018" stroke="#713FFD" stroke-width="0.643471" stroke-linecap="round"/>
<path d="M4.79439 1L3.97021 1.82417" stroke="#42A0F0" stroke-width="0.643471" stroke-linecap="round"/>
<path d="M3.97021 1L4.79439 1.82417" stroke="#42A0F0" stroke-width="0.643471" stroke-linecap="round"/>
<path d="M36.6447 1.82092L35.8206 2.6451" stroke="#713FFD" stroke-width="0.643471" stroke-linecap="round"/>
<path d="M35.8206 1.82092L36.6447 2.6451" stroke="#713FFD" stroke-width="0.643471" stroke-linecap="round"/>
</g>
<defs>
<filter id="filter0_f" x="0.94149" y="9.84347" width="20.4105" height="5.31404" filterUnits="userSpaceOnUse" color-interpolation-filters="sRGB">
<feFlood flood-opacity="0" result="BackgroundImageFix"/>
<feBlend mode="normal" in="SourceGraphic" in2="BackgroundImageFix" result="shape"/>
<feGaussianBlur stdDeviation="0.321735" result="effect1_foregroundBlur"/>
</filter>
<filter id="filter1_f" x="7.50863" y="2.45858" width="27.817" height="5.96455" filterUnits="userSpaceOnUse" color-interpolation-filters="sRGB">
<feFlood flood-opacity="0" result="BackgroundImageFix"/>
<feBlend mode="normal" in="SourceGraphic" in2="BackgroundImageFix" result="shape"/>
<feGaussianBlur stdDeviation="0.321735" result="effect1_foregroundBlur"/>
</filter>
<filter id="filter2_f" x="15.8817" y="16.5778" width="27.817" height="5.96455" filterUnits="userSpaceOnUse" color-interpolation-filters="sRGB">
<feFlood flood-opacity="0" result="BackgroundImageFix"/>
<feBlend mode="normal" in="SourceGraphic" in2="BackgroundImageFix" result="shape"/>
<feGaussianBlur stdDeviation="0.321735" result="effect1_foregroundBlur"/>
</filter>
<filter id="filter3_f" x="2.0909" y="23.9658" width="27.817" height="5.96455" filterUnits="userSpaceOnUse" color-interpolation-filters="sRGB">
<feFlood flood-opacity="0" result="BackgroundImageFix"/>
<feBlend mode="normal" in="SourceGraphic" in2="BackgroundImageFix" result="shape"/>
<feGaussianBlur stdDeviation="0.321735" result="effect1_foregroundBlur"/>
</filter>
<filter id="filter4_f" x="1.35649" y="0.356487" width="37.4093" height="26.4096" filterUnits="userSpaceOnUse" color-interpolation-filters="sRGB">
<feFlood flood-opacity="0" result="BackgroundImageFix"/>
<feBlend mode="normal" in="SourceGraphic" in2="BackgroundImageFix" result="shape"/>
<feGaussianBlur stdDeviation="0.160868" result="effect1_foregroundBlur"/>
</filter>
</defs>
</svg>
