<svg width="181" height="247" viewBox="0 0 181 247" fill="none" xmlns="http://www.w3.org/2000/svg">
<g filter="url(#filter0_f)">
<path d="M96.169 4.00004C103.362 4.08004 176.338 118.02 176.338 162.3C176.338 172.828 174.264 183.253 170.235 192.979C166.206 202.706 160.3 211.543 152.856 218.987C137.821 234.022 117.429 242.468 96.167 242.467C74.9049 242.467 54.5138 234.02 39.4795 218.985C24.4453 203.95 15.9995 183.558 16 162.296C16 118.02 88.976 3.92004 96.169 4.00004Z" fill="#42A0F0"/>
<g filter="url(#filter1_f)">
<path d="M35.0436 192.263C43.0541 194.712 53.2349 184.638 57.7831 169.761C62.3313 154.885 59.5245 140.84 51.514 138.39C43.5035 135.941 33.3227 146.016 28.7745 160.892C24.2263 175.769 27.0331 189.814 35.0436 192.263Z" fill="white"/>
</g>
</g>
<defs>
<filter id="filter0_f" x="12" y="0" width="168.338" height="246.467" filterUnits="userSpaceOnUse" color-interpolation-filters="sRGB">
<feFlood flood-opacity="0" result="BackgroundImageFix"/>
<feBlend mode="normal" in="SourceGraphic" in2="BackgroundImageFix" result="shape"/>
<feGaussianBlur stdDeviation="2" result="effect1_foregroundBlur"/>
</filter>
<filter id="filter1_f" x="0.539062" y="113.956" width="85.4795" height="102.741" filterUnits="userSpaceOnUse" color-interpolation-filters="sRGB">
<feFlood flood-opacity="0" result="BackgroundImageFix"/>
<feBlend mode="normal" in="SourceGraphic" in2="BackgroundImageFix" result="shape"/>
<feGaussianBlur stdDeviation="10" result="effect1_foregroundBlur"/>
</filter>
</defs>
</svg>
