<svg width="19" height="30" viewBox="0 0 19 30" fill="none" xmlns="http://www.w3.org/2000/svg">
<g filter="url(#filter0_f)">
<path d="M6.28057 15.8265C8.38699 15.8265 10.0946 13.996 10.0946 11.7379C10.0946 9.47983 8.38699 7.64929 6.28057 7.64929C4.17414 7.64929 2.46655 9.47983 2.46655 11.7379C2.46655 13.996 4.17414 15.8265 6.28057 15.8265Z" fill="#FA9E42"/>
<path d="M6.28023 16.6783C8.82549 16.6783 10.8888 14.4664 10.8888 11.7379C10.8888 9.00939 8.82549 6.79749 6.28023 6.79749C3.73497 6.79749 1.67163 9.00939 1.67163 11.7379C1.67163 14.4664 3.73497 16.6783 6.28023 16.6783Z" stroke="#FA9E42" stroke-width="0.829972" stroke-linecap="round" stroke-dasharray="0.08 5.48"/>
<g filter="url(#filter1_f)">
<path d="M5.85281 10.9016C7.2047 10.1318 7.96943 8.83937 7.56089 8.01482C7.15235 7.19026 5.72523 7.14583 4.37335 7.91558C3.02146 8.68532 2.25673 9.97776 2.66527 10.8023C3.07381 11.6269 4.50092 11.6713 5.85281 10.9016Z" fill="#F8E36F"/>
</g>
</g>
<g filter="url(#filter2_df)">
<g filter="url(#filter3_d)">
<path d="M7.61241 17.5707L7.61241 5.98165C7.61241 5.19097 7.90541 4.43267 8.42696 3.87357C8.94851 3.31447 9.65588 3.00037 10.3935 3.00037C11.131 3.00037 11.8384 3.31447 12.36 3.87357C12.8815 4.43267 13.1745 5.19097 13.1745 5.98165L13.1745 17.8191C13.8957 18.4254 14.4386 19.2418 14.7383 20.1703C15.0379 21.0989 15.0815 22.1004 14.8639 23.0548C14.6463 24.0093 14.1768 24.8763 13.5114 25.5521C12.8461 26.2278 12.0131 26.6837 11.1123 26.8652C10.7854 26.9581 10.4454 26.987 10.1089 26.9503C9.09409 26.922 8.1142 26.5471 7.31189 25.8804C6.50957 25.2136 5.92672 24.2897 5.64818 23.2432C5.36963 22.1967 5.40994 21.0822 5.76323 20.062C6.11652 19.0418 6.76435 18.169 7.61241 17.5709V17.5707Z" fill="url(#paint0_linear)"/>
<path d="M5.54438 21.8408C5.54438 22.5086 5.66458 23.1573 5.90165 23.7686C6.13065 24.3591 6.45905 24.8916 6.87773 25.3514C7.08395 25.5778 7.31111 25.7843 7.5529 25.9652C7.79678 26.1476 8.05781 26.3056 8.32875 26.4348C8.89146 26.7032 9.49103 26.8478 10.1108 26.8647L10.1138 26.8648L10.1168 26.8651C10.208 26.8751 10.301 26.8801 10.3933 26.8801C10.6301 26.8801 10.8651 26.8473 11.0917 26.7824L11.0946 26.7816L11.0976 26.781C11.6331 26.6739 12.1429 26.4688 12.6128 26.1714C13.0729 25.8801 13.4808 25.5094 13.825 25.0697C14.1719 24.6268 14.4424 24.1285 14.6292 23.5888C14.8225 23.0302 14.9205 22.4421 14.9205 21.8408C14.9205 21.4468 14.8779 21.0546 14.7937 20.6749C14.712 20.3059 14.5905 19.9464 14.4328 19.6064C14.278 19.2724 14.0876 18.9561 13.867 18.6662C13.6476 18.378 13.3981 18.1154 13.1253 17.8857L13.0949 17.8602V17.8187L13.0949 5.9813C13.0949 5.59028 13.0235 5.21101 12.8826 4.85402C12.7466 4.50916 12.5518 4.19943 12.3036 3.93343C12.0555 3.66743 11.7666 3.4586 11.4449 3.31273C11.1118 3.16174 10.758 3.08518 10.3933 3.08518C10.0285 3.08518 9.67474 3.16174 9.34173 3.31273C9.02003 3.4586 8.7311 3.66743 8.48297 3.93343C8.23483 4.19943 8.04003 4.50916 7.90396 4.85402C7.76311 5.21101 7.69169 5.59028 7.69169 5.9813L7.69169 17.5704V17.6163L7.65596 17.6415C7.02001 18.0908 6.48993 18.7058 6.12304 19.42C5.93653 19.783 5.79265 20.1701 5.6954 20.5704C5.59519 20.9829 5.54438 21.4103 5.54438 21.8408ZM5.46492 21.8408C5.46492 20.0556 6.31853 18.4844 7.61223 17.5704L7.61223 5.9813C7.61223 4.33476 8.85734 3 10.3933 3C11.9292 3 13.1744 4.33476 13.1744 5.9813L13.1744 17.8187C14.2859 18.7544 15 20.2083 15 21.8408C15 24.3412 13.325 26.4223 11.1122 26.8647C10.8828 26.9303 10.6419 26.9653 10.3933 26.9653C10.2972 26.9653 10.2024 26.9601 10.1088 26.9499C7.53284 26.8797 5.46492 24.6191 5.46492 21.8408Z" fill="white" fill-opacity="0.5"/>
</g>
<path d="M6.72656 21.9571C6.72641 21.2362 6.91178 20.5293 7.26225 19.9141C7.61273 19.2989 8.11474 18.7992 8.71303 18.4701V7.90247H12.0503V18.47C12.6279 18.7878 13.1162 19.2647 13.4649 19.8518C13.8136 20.4389 14.0101 21.1149 14.0342 21.8104C14.0584 22.5059 13.9093 23.1958 13.6023 23.809C13.2952 24.4223 12.8414 24.9368 12.2874 25.2997C11.7334 25.6626 11.0992 25.8607 10.4501 25.8737C9.80096 25.8868 9.16031 25.7142 8.59402 25.3738C8.02773 25.0334 7.55623 24.5375 7.22802 23.937C6.89981 23.3365 6.72672 22.6531 6.72656 21.9571Z" fill="#FF868C"/>
</g>
<defs>
<filter id="filter0_f" x="1.0906" y="6.21645" width="10.3791" height="11.0428" filterUnits="userSpaceOnUse" color-interpolation-filters="sRGB">
<feFlood flood-opacity="0" result="BackgroundImageFix"/>
<feBlend mode="normal" in="SourceGraphic" in2="BackgroundImageFix" result="shape"/>
<feGaussianBlur stdDeviation="0.0829972" result="effect1_foregroundBlur"/>
</filter>
<filter id="filter1_f" x="0.895232" y="5.70615" width="8.43561" height="7.40485" filterUnits="userSpaceOnUse" color-interpolation-filters="sRGB">
<feFlood flood-opacity="0" result="BackgroundImageFix"/>
<feBlend mode="normal" in="SourceGraphic" in2="BackgroundImageFix" result="shape"/>
<feGaussianBlur stdDeviation="0.829972" result="effect1_foregroundBlur"/>
</filter>
<filter id="filter2_df" x="3.8049" y="0.676079" width="14.5152" height="28.9455" filterUnits="userSpaceOnUse" color-interpolation-filters="sRGB">
<feFlood flood-opacity="0" result="BackgroundImageFix"/>
<feColorMatrix in="SourceAlpha" type="matrix" values="0 0 0 0 0 0 0 0 0 0 0 0 0 0 0 0 0 0 127 0" result="hardAlpha"/>
<feOffset dx="0.829972" dy="0.165994"/>
<feGaussianBlur stdDeviation="1.24496"/>
<feColorMatrix type="matrix" values="0 0 0 0 0.258824 0 0 0 0 0.627451 0 0 0 0 0.941176 0 0 0 0.596 0"/>
<feBlend mode="normal" in2="BackgroundImageFix" result="effect1_dropShadow"/>
<feBlend mode="normal" in="SourceGraphic" in2="effect1_dropShadow" result="shape"/>
<feGaussianBlur stdDeviation="0.0829972" result="effect2_foregroundBlur"/>
</filter>
<filter id="filter3_d" x="3.8049" y="0.676079" width="14.5152" height="28.9455" filterUnits="userSpaceOnUse" color-interpolation-filters="sRGB">
<feFlood flood-opacity="0" result="BackgroundImageFix"/>
<feColorMatrix in="SourceAlpha" type="matrix" values="0 0 0 0 0 0 0 0 0 0 0 0 0 0 0 0 0 0 127 0" result="hardAlpha"/>
<feOffset dx="0.829972" dy="0.165994"/>
<feGaussianBlur stdDeviation="1.24496"/>
<feColorMatrix type="matrix" values="0 0 0 0 0.501961 0 0 0 0 0.501961 0 0 0 0 0.501961 0 0 0 0.302 0"/>
<feBlend mode="normal" in2="BackgroundImageFix" result="effect1_dropShadow"/>
<feBlend mode="normal" in="SourceGraphic" in2="effect1_dropShadow" result="shape"/>
</filter>
<linearGradient id="paint0_linear" x1="13.7988" y1="12.7063" x2="4.35372" y2="14.7935" gradientUnits="userSpaceOnUse">
<stop stop-color="white" stop-opacity="0.596"/>
<stop offset="1" stop-color="#F7F7F7" stop-opacity="0.204"/>
</linearGradient>
</defs>
</svg>
