<svg width="45" height="30" viewBox="0 0 45 30" fill="none" xmlns="http://www.w3.org/2000/svg">
<g filter="url(#filter0_f)">
<path d="M19.4766 5.23336C19.4766 5.23336 21.0896 7.41998 22.3503 7.34795C23.9306 7.25511 24.2005 5.349 25.6656 5.23336C27.1983 5.25632 27.3548 7.23231 29.016 7.34795C30.5045 7.32135 31.1351 5.26937 32.554 5.23336C33.9729 5.19734 35.4854 7.34795 35.4854 7.34795" stroke="#42A0F0" stroke-opacity="0.596" stroke-width="2.64324" stroke-linecap="round"/>
</g>
<g filter="url(#filter1_f)">
<path d="M18.4829 18.4497C18.4829 18.4497 20.9114 20.6363 22.8101 20.5643C25.189 20.4714 25.5972 18.5653 27.8022 18.4497C30.11 18.4726 30.3463 20.4486 32.8473 20.5643C35.0886 20.5377 36.0382 18.4857 38.1746 18.4497C40.311 18.4137 42.5886 20.5641 42.5886 20.5641" stroke="#42A0F0" stroke-opacity="0.596" stroke-width="2.64324" stroke-linecap="round"/>
</g>
<g filter="url(#filter2_f)">
<path d="M4.60596 25.8836C4.60596 25.8836 7.03444 28.0702 8.93311 27.9982C11.312 27.9054 11.7202 25.9993 13.9252 25.8836C16.2331 25.9066 16.4693 27.8826 18.9703 27.9982C21.2116 27.9716 22.1612 25.9196 24.2976 25.8836C26.434 25.8476 28.7117 27.9981 28.7117 27.9981" stroke="#42A0F0" stroke-opacity="0.596" stroke-width="2.64324" stroke-linecap="round"/>
</g>
<g filter="url(#filter3_f)">
<path d="M29.5002 11.9L28.3438 13.0564" stroke="#CAD1D2" stroke-width="0.660811" stroke-linecap="round"/>
<path d="M28.3438 11.9L29.5002 13.0564" stroke="#CAD1D2" stroke-width="0.660811" stroke-linecap="round"/>
<path d="M38.9199 25.2814L38.0906 26.1107" stroke="#42A0F0" stroke-width="0.660811" stroke-linecap="round"/>
<path d="M38.0906 25.2814L38.9199 26.1107" stroke="#42A0F0" stroke-width="0.660811" stroke-linecap="round"/>
<path d="M3.40134 21.1514L2.57202 21.9807" stroke="#D0D0D0" stroke-width="0.660811" stroke-linecap="round"/>
<path d="M2.57202 21.1514L3.40134 21.9807" stroke="#D0D0D0" stroke-width="0.660811" stroke-linecap="round"/>
<path d="M37.4333 1.65747L36.604 2.48679" stroke="#42A0F0" stroke-width="0.660811" stroke-linecap="round"/>
<path d="M36.604 1.65747L37.4333 2.48679" stroke="#42A0F0" stroke-width="0.660811" stroke-linecap="round"/>
</g>
<g filter="url(#filter4_f)">
<path d="M4.5811 1C4.90242 1.00364 8.1622 6.09337 8.1622 8.07068C8.16227 9.02045 7.78504 9.93134 7.11349 10.603C6.44196 11.2746 5.53111 11.652 4.58135 11.652C3.63158 11.6521 2.72069 11.2749 2.04906 10.6033C1.37742 9.93178 1.00007 9.02094 1 8.07117C1 6.09304 4.25978 0.996533 4.5811 1Z" fill="#42A0F0"/>
<path d="M1.8509 9.40967C2.20872 9.51907 2.66349 9.06906 2.86665 8.40454C3.06981 7.74003 2.94444 7.11265 2.58661 7.00326C2.22879 6.89386 1.77403 7.34387 1.57086 8.00838C1.3677 8.6729 1.49308 9.30027 1.8509 9.40967Z" fill="white"/>
<path d="M11.8097 10.0862C12.0385 10.0887 14.3591 13.7121 14.3591 15.1201C14.3591 15.7962 14.0905 16.4447 13.6124 16.9228C13.1343 17.4009 12.4858 17.6695 11.8097 17.6695C11.1335 17.6695 10.4851 17.4009 10.007 16.9228C9.52885 16.4447 9.26025 15.7962 9.26025 15.1201C9.26025 13.7121 11.5809 10.0837 11.8097 10.0862Z" fill="#42A0F0"/>
<path d="M9.86576 16.073C10.1205 16.1509 10.4443 15.8305 10.589 15.3574C10.7336 14.8843 10.6443 14.4377 10.3895 14.3598C10.1348 14.2819 9.81097 14.6023 9.66634 15.0753C9.5217 15.5484 9.61099 15.9951 9.86576 16.073Z" fill="white"/>
</g>
<defs>
<filter id="filter0_f" x="17.494" y="3.2502" width="19.974" height="6.082" filterUnits="userSpaceOnUse" color-interpolation-filters="sRGB">
<feFlood flood-opacity="0" result="BackgroundImageFix"/>
<feBlend mode="normal" in="SourceGraphic" in2="BackgroundImageFix" result="shape"/>
<feGaussianBlur stdDeviation="0.330406" result="effect1_foregroundBlur"/>
</filter>
<filter id="filter1_f" x="16.5006" y="16.4668" width="28.0704" height="6.08163" filterUnits="userSpaceOnUse" color-interpolation-filters="sRGB">
<feFlood flood-opacity="0" result="BackgroundImageFix"/>
<feBlend mode="normal" in="SourceGraphic" in2="BackgroundImageFix" result="shape"/>
<feGaussianBlur stdDeviation="0.330406" result="effect1_foregroundBlur"/>
</filter>
<filter id="filter2_f" x="2.62361" y="23.9007" width="28.0704" height="6.08163" filterUnits="userSpaceOnUse" color-interpolation-filters="sRGB">
<feFlood flood-opacity="0" result="BackgroundImageFix"/>
<feBlend mode="normal" in="SourceGraphic" in2="BackgroundImageFix" result="shape"/>
<feGaussianBlur stdDeviation="0.330406" result="effect1_foregroundBlur"/>
</filter>
<filter id="filter3_f" x="1.91129" y="0.996621" width="37.6694" height="25.7748" filterUnits="userSpaceOnUse" color-interpolation-filters="sRGB">
<feFlood flood-opacity="0" result="BackgroundImageFix"/>
<feBlend mode="normal" in="SourceGraphic" in2="BackgroundImageFix" result="shape"/>
<feGaussianBlur stdDeviation="0.165203" result="effect1_foregroundBlur"/>
</filter>
<filter id="filter4_f" x="0.339189" y="0.339189" width="14.6808" height="17.9911" filterUnits="userSpaceOnUse" color-interpolation-filters="sRGB">
<feFlood flood-opacity="0" result="BackgroundImageFix"/>
<feBlend mode="normal" in="SourceGraphic" in2="BackgroundImageFix" result="shape"/>
<feGaussianBlur stdDeviation="0.330406" result="effect1_foregroundBlur"/>
</filter>
</defs>
</svg>
