<svg width="18" height="29" viewBox="0 0 18 29" fill="none" xmlns="http://www.w3.org/2000/svg">
<g filter="url(#filter0_f)">
<path d="M5.98941 15.5248C8.04626 15.5248 9.71367 13.7373 9.71367 11.5323C9.71367 9.32738 8.04626 7.53992 5.98941 7.53992C3.93255 7.53992 2.26514 9.32738 2.26514 11.5323C2.26514 13.7373 3.93255 15.5248 5.98941 15.5248Z" fill="#FA9E42"/>
<path d="M5.98966 16.3565C8.47503 16.3565 10.4898 14.1966 10.4898 11.5323C10.4898 8.86799 8.47503 6.70813 5.98966 6.70813C3.50429 6.70813 1.4895 8.86799 1.4895 11.5323C1.4895 14.1966 3.50429 16.3565 5.98966 16.3565Z" stroke="#FA9E42" stroke-width="0.810443" stroke-linecap="round" stroke-dasharray="0.08 5.35"/>
<g filter="url(#filter1_f)">
<path d="M5.57241 10.7157C6.89249 9.96402 7.63923 8.70199 7.2403 7.89684C6.84137 7.09169 5.44784 7.0483 4.12776 7.79993C2.80768 8.55157 2.06095 9.8136 2.45987 10.6187C2.8588 11.4239 4.25234 11.4673 5.57241 10.7157Z" fill="#F8E36F"/>
</g>
</g>
<g filter="url(#filter2_df)">
<g filter="url(#filter3_d)">
<path d="M7.29064 17.2279L7.29064 5.91151C7.29064 5.13942 7.57675 4.39896 8.08603 3.85302C8.5953 3.30707 9.28603 3.00037 10.0063 3.00037C10.7265 3.00037 11.4172 3.30707 11.9265 3.85302C12.4358 4.39896 12.7219 5.13942 12.7219 5.91151L12.7219 17.4704C13.4261 18.0625 13.9563 18.8596 14.2488 19.7663C14.5414 20.673 14.584 21.6509 14.3715 22.5829C14.1591 23.5149 13.7005 24.3616 13.0508 25.0214C12.4011 25.6813 11.5878 26.1265 10.7082 26.3036C10.3889 26.3944 10.057 26.4226 9.72841 26.3868C8.73746 26.3591 7.78062 25.9931 6.99719 25.342C6.21375 24.6909 5.64461 23.7888 5.37262 22.7669C5.10064 21.745 5.13999 20.6568 5.48497 19.6605C5.82995 18.6643 6.46253 17.8121 7.29064 17.228V17.2279Z" fill="url(#paint0_linear)"/>
<path d="M5.27126 21.3974C5.27126 22.0496 5.38864 22.683 5.62013 23.2799C5.84374 23.8565 6.16441 24.3765 6.57324 24.8254C6.77461 25.0465 6.99643 25.2482 7.23252 25.4248C7.47066 25.6029 7.72555 25.7572 7.99012 25.8834C8.53959 26.1455 9.12505 26.2867 9.73024 26.3032L9.73318 26.3033L9.73611 26.3036C9.82515 26.3133 9.91599 26.3182 10.0061 26.3182C10.2374 26.3182 10.4668 26.2861 10.688 26.2228L10.6909 26.222L10.6938 26.2214C11.2167 26.1169 11.7145 25.9166 12.1733 25.6261C12.6226 25.3417 13.0209 24.9798 13.3571 24.5504C13.6957 24.1179 13.9599 23.6313 14.1423 23.1043C14.3311 22.5589 14.4268 21.9846 14.4268 21.3974C14.4268 21.0128 14.3851 20.6297 14.303 20.259C14.2231 19.8987 14.1046 19.5476 13.9506 19.2156C13.7993 18.8895 13.6134 18.5806 13.398 18.2976C13.1839 18.0161 12.9402 17.7597 12.6738 17.5355L12.6441 17.5105V17.4701L12.6441 5.91115C12.6441 5.52933 12.5744 5.15899 12.4368 4.81039C12.304 4.47365 12.1138 4.1712 11.8715 3.91146C11.6292 3.65172 11.347 3.4478 11.0329 3.30538C10.7077 3.15794 10.3623 3.08318 10.0061 3.08318C9.64991 3.08318 9.30444 3.15794 8.97926 3.30538C8.66513 3.4478 8.383 3.65172 8.14071 3.91146C7.89841 4.1712 7.70819 4.47365 7.57533 4.81039C7.43779 5.15899 7.36805 5.52933 7.36805 5.91115L7.36805 17.2275V17.2723L7.33316 17.297C6.71217 17.7357 6.19457 18.3362 5.83631 19.0336C5.65419 19.3881 5.51369 19.7661 5.41873 20.157C5.32088 20.5598 5.27126 20.9771 5.27126 21.3974ZM5.19367 21.3974C5.19367 19.6543 6.0272 18.12 7.29046 17.2275L7.29046 5.91115C7.29046 4.30335 8.50627 3 10.0061 3C11.5059 3 12.7217 4.30335 12.7217 5.91115L12.7217 17.4701C13.8071 18.3837 14.5044 19.8034 14.5044 21.3974C14.5044 23.8391 12.8688 25.8711 10.708 26.3032C10.4841 26.3673 10.2489 26.4014 10.0061 26.4014C9.91225 26.4014 9.81964 26.3963 9.72826 26.3863C7.21294 26.3178 5.19367 24.1104 5.19367 21.3974Z" fill="white" fill-opacity="0.5"/>
</g>
<path d="M6.42554 21.5109C6.42539 20.807 6.60639 20.1167 6.94862 19.516C7.29085 18.9152 7.78105 18.4273 8.36526 18.106V7.78699H11.624V18.1059C12.188 18.4162 12.6648 18.8819 13.0053 19.4551C13.3458 20.0284 13.5377 20.6886 13.5613 21.3677C13.5848 22.0468 13.4392 22.7205 13.1394 23.3193C12.8397 23.9181 12.3965 24.4205 11.8555 24.7749C11.3145 25.1292 10.6953 25.3227 10.0614 25.3354C9.42759 25.3481 8.80202 25.1796 8.24905 24.8472C7.69609 24.5149 7.23569 24.0306 6.9152 23.4442C6.5947 22.8578 6.42569 22.1905 6.42554 21.5109Z" fill="#42A0F0" fill-opacity="0.596"/>
</g>
<defs>
<filter id="filter0_f" x="0.92214" y="6.14077" width="10.135" height="10.783" filterUnits="userSpaceOnUse" color-interpolation-filters="sRGB">
<feFlood flood-opacity="0" result="BackgroundImageFix"/>
<feBlend mode="normal" in="SourceGraphic" in2="BackgroundImageFix" result="shape"/>
<feGaussianBlur stdDeviation="0.0810443" result="effect1_foregroundBlur"/>
</filter>
<filter id="filter1_f" x="0.731654" y="5.64254" width="8.23689" height="7.23054" filterUnits="userSpaceOnUse" color-interpolation-filters="sRGB">
<feFlood flood-opacity="0" result="BackgroundImageFix"/>
<feBlend mode="normal" in="SourceGraphic" in2="BackgroundImageFix" result="shape"/>
<feGaussianBlur stdDeviation="0.810443" result="effect1_foregroundBlur"/>
</filter>
<filter id="filter2_df" x="3.57272" y="0.730761" width="14.1737" height="28.2645" filterUnits="userSpaceOnUse" color-interpolation-filters="sRGB">
<feFlood flood-opacity="0" result="BackgroundImageFix"/>
<feColorMatrix in="SourceAlpha" type="matrix" values="0 0 0 0 0 0 0 0 0 0 0 0 0 0 0 0 0 0 127 0" result="hardAlpha"/>
<feOffset dx="0.810443" dy="0.162089"/>
<feGaussianBlur stdDeviation="1.21566"/>
<feColorMatrix type="matrix" values="0 0 0 0 0.258824 0 0 0 0 0.627451 0 0 0 0 0.941176 0 0 0 0.596 0"/>
<feBlend mode="normal" in2="BackgroundImageFix" result="effect1_dropShadow"/>
<feBlend mode="normal" in="SourceGraphic" in2="effect1_dropShadow" result="shape"/>
<feGaussianBlur stdDeviation="0.0810443" result="effect2_foregroundBlur"/>
</filter>
<filter id="filter3_d" x="3.57272" y="0.730761" width="14.1737" height="28.2645" filterUnits="userSpaceOnUse" color-interpolation-filters="sRGB">
<feFlood flood-opacity="0" result="BackgroundImageFix"/>
<feColorMatrix in="SourceAlpha" type="matrix" values="0 0 0 0 0 0 0 0 0 0 0 0 0 0 0 0 0 0 127 0" result="hardAlpha"/>
<feOffset dx="0.810443" dy="0.162089"/>
<feGaussianBlur stdDeviation="1.21566"/>
<feColorMatrix type="matrix" values="0 0 0 0 0.501961 0 0 0 0 0.501961 0 0 0 0 0.501961 0 0 0 0.302 0"/>
<feBlend mode="normal" in2="BackgroundImageFix" result="effect1_dropShadow"/>
<feBlend mode="normal" in="SourceGraphic" in2="effect1_dropShadow" result="shape"/>
</filter>
<linearGradient id="paint0_linear" x1="13.3315" y1="12.478" x2="4.10863" y2="14.5161" gradientUnits="userSpaceOnUse">
<stop stop-color="white" stop-opacity="0.596"/>
<stop offset="1" stop-color="#F7F7F7" stop-opacity="0.204"/>
</linearGradient>
</defs>
</svg>
