<svg width="265" height="231" viewBox="0 0 265 231" fill="none" xmlns="http://www.w3.org/2000/svg">
<path d="M121.654 140.795C121.654 140.795 186.565 144.303 215.354 135.943C244.143 127.583 244.102 84.1972 215.354 73.5022C186.606 62.8072 176.781 101.035 176.781 101.035" stroke="#D0D0D0" stroke-width="16" stroke-linecap="round"/>
<path d="M10.202 66.0927C10.202 66.0927 71.6315 87.3567 101.61 87.2558C131.588 87.155 157.142 61.273 132.455 43.0683C107.769 24.8636 74.1528 43.068 74.1528 43.068" stroke="#D0D0D0" stroke-width="16" stroke-linecap="round"/>
<path d="M10 187.656C10 187.656 107.569 178.841 150.582 187.656C193.595 196.471 179.899 221.756 159.514 222.917C139.129 224.078 120.314 210.679 120.314 210.679" stroke="#D0D0D0" stroke-width="16" stroke-linecap="round"/>
<path d="M217.668 187.591H256.46" stroke="#D0D0D0" stroke-width="16" stroke-linecap="round"/>
<path d="M40.689 141.373H79.481" stroke="#D0D0D0" stroke-width="16" stroke-linecap="round"/>
</svg>
